# xmcd
#
# Track frame offsets:
#	150
#	13993
#	27665
#	38691
#	53398
#	67674
#	77331
#	92092
#	103654
#	117068
#	137758
#
# Disc length: 2013 seconds
# Revision: 0
# Processed by: cddbd v1.5.2PL0 Copyright (c) Steve Scherf et al.
# Submitted via: dBpowerAMP V12.0
#
DISCID=7e07db0b
DTITLE=Tommy Shaw - The Great Divide
DYEAR=2011
DGENRE=Country
TTITLE0=The Next Right Thing
TTITLE1=Back in Your Kitchen
TTITLE2=Sawmill
TTITLE3=The Great Divide
TTITLE4=Shadows in the Moonlight
TTITLE5=Get on the One
TTITLE6=Umpteen Miles
TTITLE7=Cavalry
TTITLE8=Afraid to Love
TTITLE9=Give 'Em Hell Harry
TTITLE10=I’ll Be Comin’ Home
EXTD=
EXTT0=
EXTT1=
EXTT2=
EXTT3=
EXTT4=
EXTT5=
EXTT6=
EXTT7=
EXTT8=
EXTT9=
EXTT10=
PLAYORDER=
